Coordinates
version=1
nRows=16
nColumns=42
inDegrees=yes

Units are S.I. units (second, meters, Newtons, ...)
If the header above contains a line with 'inDegrees', this indicates whether rotational values are in degrees (yes) or radians (no).

endheader
time	pelvis_tilt	pelvis_list	pelvis_rotation	pelvis_tx	pelvis_ty	pelvis_tz	hip_flexion_r	hip_adduction_r	hip_rotation_r	knee_angle_r	knee_angle_r_beta	ankle_angle_r	subtalar_angle_r	mtp_angle_r	hip_flexion_l	hip_adduction_l	hip_rotation_l	knee_angle_l	knee_angle_l_beta	ankle_angle_l	subtalar_angle_l	mtp_angle_l	lumbar_extension	lumbar_bending	lumbar_rotation	sh_tx_r	sh_ty_r	sh_tz_r	sh_plane_elev_r	sh_elev_r	sh_axial_rot_r	elbow_flex_r	pro_sup_r	sh_tx_l	sh_ty_l	sh_tz_l	sh_plane_elev_l	sh_elev_l	sh_axial_rot_l	elbow_flex_l	pro_sup_l
      0.00000000	     -4.69723087	      1.37477152	     -4.83971607	      0.23103315	      0.93094050	     -0.06485344	      7.74311087	     -8.18050951	    -12.64762829	     15.67916834	      0.27365311	    -10.87051730	    -31.14995596	     -4.95283983	      6.14626168	     -0.53134957	     -6.89615054	     11.28688845	      0.19699337	      9.74179615	     -6.27174572	     -4.95283983	     -3.13227092	      0.76233403	      3.13872784	      0.00977054	     -0.01385912	     -0.00530311	     10.21431773	     13.10847091	     -8.89545137	     36.52356959	     81.66429668	      0.01315726	     -0.01351342	     -0.00529767	      6.13587667	      8.06298414	     -0.51464152	     32.20253882	     75.78214632
      0.01694910	     -6.20441184	      1.35170094	     -4.23474902	      0.23376053	      0.92762535	     -0.07142241	      9.14044865	     -7.33772989	    -11.23992064	     15.09474006	      0.26345291	     -8.11788620	    -30.52148721	     -5.54253644	      8.14424787	     -0.29903389	     -6.59164733	     10.81165613	      0.18869900	     11.51858139	     -3.09300208	     -5.54253644	      0.42524808	      0.87703346	      2.50780626	      0.01579524	     -0.01490280	     -0.00544213	      1.17340475	     10.80112082	     -6.98551541	     38.08715556	     81.11450951	      0.01790979	     -0.01322061	     -0.00533218	     -0.62591283	      6.43329025	     -1.07766513	     31.93642274	     77.32256519
      0.03389830	     -6.84547365	      1.74671537	     -3.85828569	      0.23478100	      0.92429485	     -0.07449289	      9.79909116	     -7.24804573	    -11.42311504	     15.06095037	      0.26286317	     -6.16364120	    -29.31942270	     -6.08326430	      8.83340736	      0.16387112	     -7.01528544	     10.61404730	      0.18525007	     11.70953154	     -1.75525943	     -6.08326430	      1.51329591	      0.06340313	      2.09574735	      0.01753470	     -0.01475972	     -0.00516345	     -1.80495831	      9.58808746	     -6.10219231	     39.21046683	     79.46751843	      0.01864637	     -0.01287057	     -0.00505067	     -0.52532513	      7.02880827	     -1.04704137	     31.90300234	     75.75460052
      0.05084750	     -6.77402848	      1.96074919	     -3.22501148	      0.23716396	      0.92832765	     -0.08031600	      9.61059319	     -6.95400047	    -10.53788429	     15.25246870	      0.26620580	     -3.44919587	    -26.27835269	     -6.17528804	      8.32723480	      0.80756575	     -6.30056122	      9.99487752	      0.17444352	     11.41000099	     -1.83063683	     -6.17528804	      1.62160958	     -0.49702410	      1.17276140	      0.01865385	     -0.01544960	     -0.00505790	     -2.07460489	      8.80632332	     -6.12583230	     39.59375639	     78.62217440	      0.01700639	     -0.01322935	     -0.00477015	      0.40126712	      7.79466097	     -1.37293457	     31.75192408	     74.84230901
      0.06779660	     -6.75771943	      1.87847180	     -2.60946517	      0.23859166	      0.92723032	     -0.08193083	      9.41331651	     -6.13058612	     -8.96000754	     15.36917792	      0.26824276	      0.31298926	    -22.15198524	     -6.59401591	      7.90673431	      0.93683439	     -5.58010088	      9.35561609	      0.16328630	     11.18952783	     -1.59872193	     -6.59401591	      1.67260721	     -0.66164254	      0.55874465	      0.02018328	     -0.01568123	     -0.00497928	     -3.97305418	      7.99521896	     -4.06035590	     40.38928064	     76.47948636	      0.01737674	     -0.01308377	     -0.00458223	      2.94300971	      8.73330401	     -1.74868845	     31.32842791	     71.09310439
      0.08474580	     -6.59220217	      1.71356887	     -2.05649030	      0.23959210	      0.92903298	     -0.08534599	      8.88563319	     -5.17343564	     -6.99541825	     15.36884149	      0.26823689	      3.50262438	    -18.10063942	     -6.62297060	      7.50883528	      1.01009150	     -4.77267856	      8.86069393	      0.15464828	     11.17138225	     -1.27594318	     -6.62297060	      1.59674457	     -0.74739715	     -0.24763604	      0.02144834	     -0.01561932	     -0.00491131	     -3.11657409	      7.40305513	     -4.32393423	     40.11300292	     76.01269440	      0.01846074	     -0.01264812	     -0.00446958	      4.18865849	      9.40882641	     -1.97680335	     31.10921849	     70.47768568
      0.10169490	     -6.32309915	      1.49785341	     -1.37841905	      0.24312806	      0.93257508	     -0.08840339	      8.16830687	     -4.27000267	     -5.69949904	     15.18951827	      0.26510711	      5.95109254	    -14.11159972	     -6.66675079	      6.97460215	      1.01164783	     -4.13798134	      8.43528844	      0.14722356	     10.76622760	     -0.95691756	     -6.66675079	      1.37750021	     -0.80025605	     -1.19885429	      0.02228367	     -0.01568261	     -0.00493728	     -1.90778165	      6.95851166	     -4.32846863	     39.75440143	     75.25910297	      0.01911698	     -0.01231156	     -0.00432071	      5.67224464	      9.94794349	     -2.38880756	     30.91636466	     69.46553402
      0.11864410	     -5.93118104	      1.33953314	     -0.83798050	      0.24593297	      0.93574957	     -0.08974486	      7.29503490	     -3.40269464	     -4.67229392	     14.84902867	      0.25916444	      7.69399581	    -10.66011108	     -6.99236082	      6.28575546	      1.00176069	     -3.49893021	      8.07216184	      0.14088580	     10.16177911	     -0.83985137	     -6.99236082	      0.96494206	     -0.95223209	     -1.59725013	      0.02199809	     -0.01580462	     -0.00496969	     -2.47928965	      6.37363170	     -2.93264262	     39.64389798	     73.46609851	      0.01893879	     -0.01186292	     -0.00434797	     10.50781168	     10.77995676	     -4.34920805	     30.34858378	     62.69640171
      0.13559320	     -5.59208893	      1.26270205	     -0.48500627	      0.24781982	      0.93636983	     -0.09464874	      6.55379186	     -2.77925789	     -3.88390302	     14.45760299	      0.25233277	      8.44876935	     -8.93083714	     -7.01305125	      5.73503452	      1.12785057	     -3.08597428	      7.88716400	      0.13765698	      9.76426977	     -0.72763991	     -7.01305125	      0.64439232	     -1.03154825	     -2.16315886	      0.02200349	     -0.01586331	     -0.00497598	     -1.40543809	      5.98848443	     -3.07487249	     39.15712562	     73.26817375	      0.01953164	     -0.01170615	     -0.00435192	     11.38068458	     10.99744664	     -4.56293237	     30.17362483	     62.18494780
      0.15254240	     -5.16908054	      1.22945281	     -0.27110965	      0.25067379	      0.93587747	     -0.09626011	      5.79318760	     -2.24128965	     -3.09758214	     13.98158941	      0.24402477	      8.73852148	     -8.03269114	     -7.03494234	      4.98076725	      1.26010139	     -2.73414340	      7.57558487	      0.13221890	      9.38718948	     -0.66666724	     -7.03494234	      0.22875392	     -1.14911419	     -2.47537005	      0.02140438	     -0.01594254	     -0.00507050	     -0.81625285	      5.69867694	     -2.91151622	     38.56940434	     73.09887733	      0.02018638	     -0.01170455	     -0.00434036	     11.87724184	     11.08548578	     -4.64442385	     30.07447233	     61.99460599
      0.16949150	     -4.85521270	      1.20012669	     -0.18296587	      0.25448979	      0.93838097	     -0.09904411	      5.11658113	     -1.84809851	     -2.59745266	     13.27954300	      0.23177175	      8.77010833	     -7.65984445	     -7.04094447	      4.27436658	      1.44557936	     -2.21596194	      7.16751611	      0.12509676	      9.24899294	     -0.55443484	     -7.04094447	     -0.04657166	     -1.14395509	     -2.72428750	      0.02053002	     -0.01587327	     -0.00509517	     -0.74726818	      5.41915803	     -2.63963107	     37.94326481	     73.16667780	      0.02031816	     -0.01148769	     -0.00431309	     11.83465969	     10.89389405	     -4.78522029	     29.67305082	     61.83560055
      0.18644070	     -4.46385877	      1.16366793	     -0.23783810	      0.25710276	      0.93422472	     -0.10033810	      4.62142446	     -1.59509563	     -2.25004518	     12.78688705	      0.22317328	      8.21896475	     -8.55888177	     -7.13112291	      3.43666386	      1.59896584	     -1.88230675	      6.75830851	      0.11795474	      9.03620397	     -0.67692010	     -7.13112291	     -0.47033779	     -1.10165881	     -3.24144194	      0.02042092	     -0.01579109	     -0.00517191	      0.88837745	      5.45504012	     -2.92412801	     37.18129208	     72.15883627	      0.01844621	     -0.01150848	     -0.00429819	     12.42979415	     10.79019411	     -5.60579536	     28.83651282	     60.25557208
      0.20338980	     -4.19144143	      1.13673929	     -0.36057144	      0.25921867	      0.93151936	     -0.09973557	      4.30670110	     -1.35978645	     -1.88017501	     12.43188794	      0.21697738	      7.54675592	    -10.00432344	     -7.24722478	      2.74580431	      1.73095068	     -1.68099875	      6.43880823	      0.11237840	      9.14206833	     -0.65992844	     -7.24722478	     -0.65229731	     -1.07671282	     -3.52350480	      0.02057745	     -0.01582429	     -0.00514837	      0.16219293	      5.22110116	     -2.02923250	     36.70774816	     74.11601486	      0.01740321	     -0.01157760	     -0.00432794	     11.28933497	     10.41179236	     -4.93194512	     28.14871249	     58.52330779
      0.22033900	     -3.93426022	      1.08611674	     -0.40863216	      0.26034737	      0.93583225	     -0.09877937	      4.01672758	     -1.13934595	     -2.13225311	     12.16727065	      0.21235893	      6.81918863	    -11.15385634	     -7.26153952	      2.13674808	      1.75248312	     -1.17594549	      6.09070366	      0.10630283	      9.07365142	     -0.93307184	     -7.26153952	     -0.85225351	     -1.10229816	     -3.55930898	      0.01927775	     -0.01581706	     -0.00508684	      0.95766976	      5.15442519	     -2.36811009	     35.80741450	     73.70093826	      0.01712233	     -0.01130451	     -0.00434684	     11.39277650	     10.13777787	     -5.09705948	     27.23486343	     58.06804755
      0.23728810	     -3.70760928	      1.03948072	     -0.57254704	      0.26154801	      0.93212502	     -0.09849959	      3.84060524	     -0.91323838	     -1.71319855	     12.08917551	      0.21099592	      5.68819941	    -13.30111405	     -7.30218506	      1.63014847	      1.72497356	     -1.04647153	      5.82553452	      0.10167476	      9.09263651	     -1.07840356	     -7.30218506	     -1.09203282	     -1.13041949	     -3.61690623	      0.01871928	     -0.01581803	     -0.00518587	      1.60734804	      5.17298619	     -2.19398777	     35.04027602	     73.76982042	      0.01615770	     -0.01149737	     -0.00430638	     10.89538063	      9.88062301	     -5.38958781	     26.68001278	     57.52190946
      0.25423730	     -3.30691260	      1.04279526	     -0.67394386	      0.26465850	      0.93512415	     -0.09902293	      3.28178537	     -0.84537567	     -1.82729749	     11.94111287	      0.20841174	      5.04163465	    -13.88981862	     -7.29334109	      0.87177518	      1.72560420	     -1.07153024	      5.42737159	      0.09472550	      8.90687903	     -0.71764649	     -7.29334109	     -1.45454366	     -1.28106978	     -3.27704838	      0.01656381	     -0.01589641	     -0.00535884	      3.69901415	      5.69210048	     -1.24906898	     33.74875927	     73.98474481	      0.01561204	     -0.01123914	     -0.00448196	     12.34577862	      9.96849088	     -4.51880262	     25.57472380	     57.34866099
